# xmcd
#
# Track frame offsets: 
#        150
#        8635
#        19827
#        32087
#        43002
#        54105
#        67042
#        79032
#        91615
#        102032
#        112162
#        123342
#        134007
#        145830
#        158945
#        170162
#        180315
#        190355
#        204130
#        215957
#        228887
#        245347
#        262057
#        277610
#        291144
#
# Disc length: 4093 seconds
#
# Revision: 0
# Processed by: cddbd v1.5.2PL0 Copyright (c) Steve Scherf et al.
# Submitted via: ExactAudioCopyFreeDBPlugin 1.0
#
DISCID=5d0ffb19
DTITLE=Tom Jones - The best of Tom Jones 2000
DYEAR=1900
DGENRE=Blues
TTITLE0=Dr. Love
TTITLE1=Face of a looser
TTITLE2=It's been a long time coming
TTITLE3=In a woman's eyes
TTITLE4=More
TTITLE5=I'll never let you go
TTITLE6=The loser
TTITLE7=To make a big man cry
TTITLE8=Key to my heart
TTITLE9=True love comes only once in a lifetime
TTITLE10=A littley you
TTITLE11=You're so good for me
TTITLE12=Where do you belong
TTITLE13=These thing you don't forget
TTITLE14=Stop breaking my heart
TTITLE15=Hide and seek
TTITLE16=Not responsible
TTITLE17=This and that
TTITLE18=Promise her anything
TTITLE19=Thunderball
TTITLE20=Burning down the house with Cardingans
TTITLE21=Lust for life with the predenders
TTITLE22=Ara you gonna go my way (with Robbie William)
TTITLE23=Mama told me not come (with Stereophonics)
TTITLE24=Sexbomb (with Mousse T.)
EXTD=
EXTT0=
EXTT1=
EXTT2=
EXTT3=
EXTT4=
EXTT5=
EXTT6=
EXTT7=
EXTT8=
EXTT9=
EXTT10=
EXTT11=
EXTT12=
EXTT13=
EXTT14=
EXTT15=
EXTT16=
EXTT17=
EXTT18=
EXTT19=
EXTT20=
EXTT21=
EXTT22=
EXTT23=
EXTT24=
PLAYORDER=
